<svg width="217" height="114" viewBox="0 0 217 114" fill="none" xmlns="http://www.w3.org/2000/svg">
<path d="M64.5111 65.8897C52.6702 78.8561 40.925 89.6162 31.3124 96.3556C26.4954 99.7328 22.2935 102.043 18.9356 103.146C15.4956 104.275 13.4321 103.991 12.3154 103.016C11.1986 102.04 10.6783 100.066 11.4389 96.5957C12.1815 93.208 14.0564 88.8642 16.9456 83.8026C22.7113 73.702 32.3217 61.0767 44.1626 48.1103C56.0036 35.1439 67.7488 24.3838 77.3613 17.6444C82.1784 14.2672 86.3802 11.9566 89.7382 10.8541C93.1782 9.72471 95.2416 10.0085 96.3584 10.9843C97.4752 11.9601 97.9955 13.9338 97.2348 17.4043C96.4923 20.792 94.6174 25.1358 91.7281 30.1974C85.9624 40.298 76.352 52.9233 64.5111 65.8897Z" stroke="black" stroke-width="3"/>
<path d="M45.5997 61.4146C47.5915 63.0609 49.0346 64.8934 49.7806 66.4877C50.5636 68.1609 50.4404 69.2192 50.0165 69.7099C49.5927 70.2005 48.5465 70.496 46.7293 70.0201C44.9978 69.5667 42.9097 68.4807 40.9179 66.8345C38.9261 65.1883 37.4831 63.3557 36.737 61.7614C35.9541 60.0883 36.0773 59.03 36.5011 58.5393C36.925 58.0487 37.9711 57.7532 39.7884 58.2291C41.5199 58.6825 43.608 59.7684 45.5997 61.4146Z" fill="#61531A" stroke="black" stroke-width="2"/>
<path d="M55.925 49.0839C58.0844 50.8687 59.6821 52.8254 60.5394 54.5111C60.9688 55.3555 61.19 56.0879 61.2337 56.6682C61.2769 57.2424 61.1448 57.5963 60.9565 57.8142C60.7683 58.0321 60.4337 58.2185 59.8476 58.2727C59.2554 58.3274 58.4803 58.2364 57.5574 57.9631C55.7153 57.4177 53.4763 56.2033 51.3168 54.4185C49.1574 52.6337 47.5597 50.677 46.7024 48.9914C46.273 48.1469 46.0518 47.4146 46.0082 46.8343C45.9649 46.2601 46.097 45.9062 46.2853 45.6883C46.4735 45.4704 46.8082 45.2839 47.3942 45.2298C47.9864 45.1751 48.7615 45.2661 49.6844 45.5394C51.5265 46.0848 53.7655 47.2992 55.925 49.0839Z" fill="#61531A" stroke="black" stroke-width="2"/>
<path d="M65.2238 39.0702C67.2418 40.738 68.7138 42.5847 69.4843 44.1852C70.2971 45.8733 70.1765 46.9134 69.7767 47.3762C69.3769 47.8391 68.3486 48.129 66.5114 47.6268C64.7695 47.1508 62.6624 46.0393 60.6444 44.3715C58.6264 42.7036 57.1544 40.8569 56.3839 39.2564C55.5711 37.5683 55.6917 36.5282 56.0915 36.0654C56.4913 35.6025 57.5196 35.3127 59.3568 35.8148C61.0987 36.2908 63.2058 37.4023 65.2238 39.0702Z" fill="#61531A" stroke="black" stroke-width="2"/>
<path d="M118.674 65.8897C106.833 78.8561 95.0882 89.6162 85.4756 96.3556C80.6585 99.7328 76.4567 102.043 73.0987 103.146C69.6588 104.275 67.5953 103.991 66.4785 103.016C65.3617 102.04 64.8414 100.066 65.6021 96.5957C66.3446 93.208 68.2195 88.8642 71.1088 83.8026C76.8745 73.702 86.4849 61.0767 98.3258 48.1103C110.167 35.1439 121.912 24.3838 131.524 17.6444C136.342 14.2672 140.543 11.9566 143.901 10.8541C147.341 9.72471 149.405 10.0085 150.522 10.9843C151.638 11.9601 152.159 13.9338 151.398 17.4043C150.655 20.792 148.781 25.1358 145.891 30.1974C140.126 40.298 130.515 52.9233 118.674 65.8897Z" stroke="black" stroke-width="3"/>
<path d="M99.7629 61.4146C101.755 63.0609 103.198 64.8934 103.944 66.4877C104.727 68.1609 104.604 69.2192 104.18 69.7099C103.756 70.2005 102.71 70.496 100.893 70.0201C99.161 69.5667 97.0729 68.4807 95.0811 66.8345C93.0893 65.1883 91.6463 63.3557 90.9002 61.7614C90.1173 60.0883 90.2405 59.03 90.6643 58.5393C91.0882 58.0487 92.1343 57.7532 93.9516 58.2291C95.6831 58.6825 97.7712 59.7684 99.7629 61.4146Z" fill="#61531A" stroke="black" stroke-width="2"/>
<path d="M110.088 49.0839C112.248 50.8687 113.845 52.8254 114.703 54.5111C115.132 55.3555 115.353 56.0879 115.397 56.6682C115.44 57.2424 115.308 57.5963 115.12 57.8142C114.931 58.0321 114.597 58.2185 114.011 58.2727C113.419 58.3274 112.643 58.2364 111.721 57.9631C109.878 57.4177 107.639 56.2033 105.48 54.4185C103.321 52.6337 101.723 50.677 100.866 48.9914C100.436 48.1469 100.215 47.4146 100.171 46.8343C100.128 46.2601 100.26 45.9062 100.448 45.6883C100.637 45.4704 100.971 45.2839 101.557 45.2298C102.15 45.1751 102.925 45.2661 103.848 45.5394C105.69 46.0848 107.929 47.2992 110.088 49.0839Z" fill="#61531A" stroke="black" stroke-width="2"/>
<path d="M119.387 39.0702C121.405 40.738 122.877 42.5847 123.647 44.1852C124.46 45.8733 124.34 46.9134 123.94 47.3762C123.54 47.8391 122.512 48.129 120.675 47.6268C118.933 47.1508 116.826 46.0393 114.808 44.3715C112.79 42.7036 111.318 40.8569 110.547 39.2564C109.734 37.5683 109.855 36.5282 110.255 36.0654C110.654 35.6025 111.683 35.3127 113.52 35.8148C115.262 36.2908 117.369 37.4023 119.387 39.0702Z" fill="#61531A" stroke="black" stroke-width="2"/>
<path d="M172.837 65.8897C160.996 78.8561 149.251 89.6162 139.639 96.3556C134.822 99.7328 130.62 102.043 127.262 103.146C123.822 104.275 121.758 103.991 120.642 103.016C119.525 102.04 119.005 100.066 119.765 96.5957C120.508 93.208 122.383 88.8642 125.272 83.8026C131.038 73.702 140.648 61.0767 152.489 48.1103C164.33 35.1439 176.075 24.3838 185.688 17.6444C190.505 14.2672 194.706 11.9566 198.064 10.8541C201.504 9.72471 203.568 10.0085 204.685 10.9843C205.801 11.9601 206.322 13.9338 205.561 17.4043C204.819 20.792 202.944 25.1358 200.054 30.1974C194.289 40.298 184.678 52.9233 172.837 65.8897Z" stroke="black" stroke-width="3"/>
<path d="M153.926 61.4146C155.918 63.0609 157.361 64.8934 158.107 66.4877C158.89 68.1609 158.767 69.2192 158.343 69.7099C157.919 70.2005 156.873 70.496 155.056 70.0201C153.324 69.5667 151.236 68.4807 149.244 66.8345C147.252 65.1883 145.809 63.3557 145.063 61.7614C144.28 60.0883 144.404 59.03 144.827 58.5393C145.251 58.0487 146.297 57.7532 148.115 58.2291C149.846 58.6825 151.934 59.7684 153.926 61.4146Z" fill="#61531A" stroke="black" stroke-width="2"/>
<path d="M164.251 49.0839C166.411 50.8687 168.008 52.8254 168.866 54.5111C169.295 55.3555 169.516 56.0879 169.56 56.6682C169.603 57.2424 169.471 57.5963 169.283 57.8142C169.095 58.0321 168.76 58.2185 168.174 58.2727C167.582 58.3274 166.807 58.2364 165.884 57.9631C164.042 57.4177 161.803 56.2033 159.643 54.4185C157.484 52.6337 155.886 50.677 155.029 48.9914C154.599 48.1469 154.378 47.4146 154.334 46.8343C154.291 46.2601 154.423 45.9062 154.612 45.6883C154.8 45.4704 155.134 45.2839 155.72 45.2298C156.313 45.1751 157.088 45.2661 158.011 45.5394C159.853 46.0848 162.092 47.2992 164.251 49.0839Z" fill="#61531A" stroke="black" stroke-width="2"/>
<path d="M173.55 39.0702C175.568 40.738 177.04 42.5847 177.811 44.1852C178.623 45.8733 178.503 46.9134 178.103 47.3762C177.703 47.8391 176.675 48.129 174.838 47.6268C173.096 47.1508 170.989 46.0393 168.971 44.3715C166.953 42.7036 165.481 40.8569 164.71 39.2564C163.897 37.5683 164.018 36.5282 164.418 36.0654C164.818 35.6025 165.846 35.3127 167.683 35.8148C169.425 36.2908 171.532 37.4023 173.55 39.0702Z" fill="#61531A" stroke="black" stroke-width="2"/>
</svg>
