<svg width="1440" height="287" viewBox="0 0 1440 287" fill="none" xmlns="http://www.w3.org/2000/svg">
<path fill-rule="evenodd" clip-rule="evenodd" d="M0 259.596L26.4 237.349C52.8 215.102 106.8 170.607 159.6 148.36C213.6 126.113 266.4 126.113 320.4 159.484C373.2 192.854 427.2 259.596 480 248.473C532.8 237.349 586.8 148.36 639.6 109.427C693.6 70.4945 746.4 81.6181 800.4 114.989C853.2 148.36 907.2 203.978 960 242.911C1012.8 281.843 1066.8 304.091 1119.6 270.72C1173.6 237.349 1226.4 148.36 1280.4 126.113C1333.2 103.865 1387.2 148.36 1413.6 170.607L1440 192.854V26H1413.6C1387.2 26 1333.2 26 1280.4 26C1226.4 26 1173.6 26 1119.6 26C1066.8 26 1012.8 26 960 26C907.2 26 853.2 26 800.4 26C746.4 26 693.6 26 639.6 26C586.8 26 532.8 26 480 26C427.2 26 373.2 26 320.4 26C266.4 26 213.6 26 159.6 26C106.8 26 52.8 26 26.4 26H0V259.596Z" fill="#3D3209"/>
<path fill-rule="evenodd" clip-rule="evenodd" d="M0 226.116L26.4 205.915C52.8 185.713 106.8 145.31 159.6 125.108C213.6 104.907 266.4 104.907 320.4 135.209C373.2 165.511 427.2 226.116 480 216.015C532.8 205.915 586.8 125.108 639.6 89.7557C693.6 54.4031 746.4 64.5038 800.4 94.8061C853.2 125.108 907.2 175.612 960 210.965C1012.8 246.318 1066.8 266.519 1119.6 236.217C1173.6 205.915 1226.4 125.108 1280.4 104.907C1333.2 84.7054 1387.2 125.108 1413.6 145.31L1440 165.511V14H1413.6C1387.2 14 1333.2 14 1280.4 14C1226.4 14 1173.6 14 1119.6 14C1066.8 14 1012.8 14 960 14C907.2 14 853.2 14 800.4 14C746.4 14 693.6 14 639.6 14C586.8 14 532.8 14 480 14C427.2 14 373.2 14 320.4 14C266.4 14 213.6 14 159.6 14C106.8 14 52.8 14 26.4 14H0V226.116Z" fill="#332B08"/>
<path fill-rule="evenodd" clip-rule="evenodd" d="M0 195.111L26.4 176.529C52.8 157.947 106.8 120.783 159.6 102.201C213.6 83.619 266.4 83.619 320.4 111.492C373.2 139.365 427.2 195.111 480 185.82C532.8 176.529 586.8 102.201 639.6 69.6825C693.6 37.164 746.4 46.455 800.4 74.328C853.2 102.201 907.2 148.656 960 181.174C1012.8 213.693 1066.8 232.275 1119.6 204.402C1173.6 176.529 1226.4 102.201 1280.4 83.619C1333.2 65.037 1387.2 102.201 1413.6 120.783L1440 139.365V0H1413.6C1387.2 0 1333.2 0 1280.4 0C1226.4 0 1173.6 0 1119.6 0C1066.8 0 1012.8 0 960 0C907.2 0 853.2 0 800.4 0C746.4 0 693.6 0 639.6 0C586.8 0 532.8 0 480 0C427.2 0 373.2 0 320.4 0C266.4 0 213.6 0 159.6 0C106.8 0 52.8 0 26.4 0H0V195.111Z" fill="#2D2607"/>
</svg>
